Coordinates
version=1
nRows=13
nColumns=36
inDegrees=yes

Units are S.I. units (second, meters, Newtons, ...)
If the header above contains a line with 'inDegrees', this indicates whether rotational values are in degrees (yes) or radians (no).

endheader
time	pelvis_tilt	pelvis_list	pelvis_rotation	pelvis_tx	pelvis_ty	pelvis_tz	hip_flexion_r	hip_adduction_r	hip_rotation_r	knee_angle_r	knee_angle_r_beta	ankle_angle_r	subtalar_angle_r	mtp_angle_r	hip_flexion_l	hip_adduction_l	hip_rotation_l	knee_angle_l	knee_angle_l_beta	ankle_angle_l	subtalar_angle_l	mtp_angle_l	lumbar_extension	lumbar_bending	lumbar_rotation	arm_flex_r	arm_add_r	arm_rot_r	elbow_flex_r	pro_sup_r	arm_flex_l	arm_add_l	arm_rot_l	elbow_flex_l	pro_sup_l
      2.56666670	    -10.02476358	      2.35774822	     -4.64608100	      0.76975008	      0.97160419	     -0.04002395	     10.70581533	    -11.78150274	    -21.32033720	      7.23979661	      0.12635829	    -29.67985272	      4.54098780	     -7.49999987	     15.16185835	     -8.56441727	    -15.15082651	      9.99810001	      0.17449976	    -26.47397104	      6.45264556	     -7.49999987	     -2.81247281	     -3.32244002	     -6.21863803	    -28.64053535	    -35.67644271	     11.62771304	     35.78788632	     72.85725129	    -36.38708872	    -47.47300635	      7.37153407	     58.84513968	     80.18158415
      2.58333330	     -9.47165998	      2.40571431	     -4.27808729	      0.77873061	      1.00649357	     -0.04185263	      7.28669686	    -12.05507080	    -23.79274295	      4.23942652	      0.07399195	    -36.42115426	      5.16731288	     -7.49999987	     12.22189706	     -7.90002261	    -15.79659679	      6.01057176	      0.10490427	    -31.73821456	      7.31225433	     -7.49999987	     -0.68967590	     -3.17565328	     -6.45108524	    -36.51057398	    -35.30939559	      6.06773169	     31.63014142	     68.44625263	    -45.14620024	    -40.94861235	      1.51607169	     52.92244271	     78.38171950
      2.60000000	     -8.85751502	      2.20462659	     -3.86571354	      0.78510577	      1.05689941	     -0.04459081	      4.21087488	    -12.07096171	    -24.79028931	      4.56652110	      0.07970083	    -42.04984458	      5.10958396	     -7.49999987	      9.69130247	     -7.51114127	    -16.38674706	      4.75079985	      0.08291710	    -37.54032700	      6.40235527	     -7.49999987	      1.07539540	     -2.95501474	     -6.98144094	    -41.28286504	    -34.60317858	      5.56805493	     27.29044485	     57.85816598	    -49.41481995	    -34.33475674	     -1.07669491	     43.95864349	     74.04131911
      2.61666670	     -7.95388209	      1.72000777	     -3.65934837	      0.79203616	      1.10874871	     -0.04650874	      1.66385583	    -11.79134649	    -24.53219622	      5.75500821	      0.10044384	    -47.99850036	      5.85892490	     -7.49999987	      7.11923143	     -7.60521046	    -15.93843549	      4.83530309	      0.08439196	    -42.97575843	      6.26131580	     -7.49999987	      2.17697475	     -2.28099351	     -7.10030103	    -44.74761145	    -33.27117965	      4.01773072	     22.56162505	     56.31461682	    -50.29159377	    -28.71431238	     -1.18704240	     34.22763962	     70.93157055
      2.63333330	     -7.16705611	      1.33872844	     -3.45053272	      0.79932078	      1.13959219	     -0.04706263	     -0.24945009	    -11.64914843	    -24.14819081	      6.45929925	      0.11273604	    -49.35652818	      7.37605788	     -7.49999987	      4.95168259	     -7.92890239	    -15.17085336	      4.99656027	      0.08720643	    -46.26630187	      6.34404051	     -7.49999987	      3.11905052	     -1.54010145	     -6.97781979	    -48.78597129	    -32.03005053	      3.10380258	     20.34824983	     47.70812558	    -51.35230566	    -25.06306400	      4.44444290	     25.53668983	     62.35324214
      2.65000000	     -6.40471180	      1.36865477	     -3.76946766	      0.80094610	      1.16817016	     -0.05084994	     -1.92745379	    -11.87910201	    -24.89369940	      5.29519983	      0.09241867	    -49.50460716	      7.81510970	     -7.49999987	      3.43489371	     -7.87342121	    -14.95492336	      4.29089744	      0.07489029	    -46.84388263	      6.17260256	     -7.49999987	      4.05807471	     -2.02518118	     -5.88341827	    -50.42585203	    -30.81038819	      5.61564243	     16.33029779	     49.17682111	    -54.03261238	    -19.30508438	     14.96360474	     13.23434179	     59.33786253
      2.66666670	     -5.66266542	      1.46508664	     -4.25076452	      0.79791204	      1.19234148	     -0.05083736	     -2.79583229	    -12.18596174	    -26.87876477	      3.48786836	      0.06087479	    -49.47410527	      6.21624261	     -7.49999987	      2.60973324	     -7.81576480	    -15.33804094	      3.28163165	      0.05727528	    -44.10210565	      5.45569592	     -7.49999987	      4.16338039	     -2.34291259	     -4.17956534	    -52.03980975	    -29.32363151	      4.93612806	     13.42418941	     47.85110437	    -54.20271743	    -16.45873577	     21.52114274	      7.83580009	     47.54333666
      2.68333330	     -5.34915861	      1.73136795	     -4.53021217	      0.79764480	      1.21898590	     -0.05155265	     -3.16955661	    -12.44641534	    -28.73261808	      1.93733130	      0.03381281	    -49.16492568	      3.42026713	     -7.49999987	      2.54580633	     -7.51340533	    -16.53132799	      2.40785341	      0.04202497	    -38.55760223	      4.98201627	     -7.49999987	      3.87005859	     -2.74644589	     -4.34050724	    -51.66899457	    -28.36555244	      4.22596756	     11.97957961	     47.71069428	    -53.33024961	    -14.14391118	     21.88965756	      6.83024311	     47.62240461
      2.70000000	     -5.18795379	      1.71037268	     -4.52954823	      0.79538773	      1.23842364	     -0.05220620	     -3.23488871	    -12.18446608	    -29.38520686	      1.48775294	      0.02596619	    -47.21009403	      0.69191651	     -7.49999987	      3.19258858	     -7.54793254	    -17.98412799	      2.19757448	      0.03835491	    -32.64120039	      4.79139716	     -7.49999987	      2.93825077	     -2.54226545	     -4.86583468	    -50.48995340	    -27.66900515	      2.91733603	     11.47475157	     48.98361504	    -50.80970845	    -12.88234547	     22.04635645	      7.12717987	     49.26111020
      2.71666670	     -5.08120087	      1.25123774	     -4.11880552	      0.79158725	      1.24736593	     -0.05485920	     -2.90930460	    -11.57253496	    -29.79879333	      2.43607626	      0.04251755	    -44.31675915	     -2.06583988	     -7.49999987	      3.98345512	     -7.89625004	    -18.66519265	      2.42185271	      0.04226930	    -27.27576304	      5.10912146	     -7.49999987	      1.28904829	     -1.67330526	     -6.18403663	    -48.31008086	    -28.15086715	      2.40254598	     12.00307015	     48.73659824	    -48.22723287	    -12.29725002	     22.91463802	      9.90665987	     49.43286397
      2.73333330	     -5.32659537	      0.91168314	     -3.76603745	      0.78709870	      1.26030217	     -0.05615141	     -1.84633588	    -10.98342645	    -29.27183049	      3.67668534	      0.06417026	    -41.53970574	     -3.10171692	     -7.49999987	      5.35029877	     -8.08462138	    -18.91201950	      3.01240998	      0.05257647	    -24.70014264	      4.52660056	     -7.49999987	      0.23333418	     -0.99616284	     -6.82256951	    -46.43770308	    -28.05891239	      2.41068953	     13.56726359	     48.76121807	    -45.18222257	    -12.17184052	     22.92977882	     12.15917846	     49.49390242
      2.75000000	     -5.09259052	      0.49872024	     -3.36722397	      0.78589238	      1.27311279	     -0.05902550	     -1.26974603	    -10.22560933	    -27.88601604	      4.74078357	      0.08274228	    -39.39543681	     -2.88993775	     -7.49999987	      6.12543178	     -8.38702833	    -18.78104310	      3.68951942	      0.06439426	    -23.31613346	      5.30115327	     -7.49999987	     -1.17583564	     -0.13330099	     -7.27909564	    -44.85961585	    -27.71015720	      2.21041080	     15.82626345	     48.14187931	    -43.12997419	    -12.97275463	     22.64540724	     18.71784854	     49.38986476
      2.76666670	     -5.27020836	      0.66063954	     -3.29327385	      0.78227557	      1.28411072	     -0.05897638	     -0.27856888	     -9.89692066	    -26.31032326	      5.28606829	      0.09225930	    -38.86017300	     -1.04303273	     -7.49999987	      7.39979591	     -8.06122664	    -17.58082443	      4.31459224	      0.07530384	    -22.96348568	      5.62857733	     -7.49999987	     -1.76850652	     -0.04341742	     -6.53693110	    -43.45849088	    -26.30374688	      2.52919950	     17.25647603	     47.83763834	    -41.12601369	    -13.95245661	     21.47207447	     24.50453067	     49.52291360
